# This file uses centimeters as units for non-parametric coordinates.

mtllib floorLight.mtl
g default
v -101.701347 0.003143 101.701355
v 101.701347 0.003143 101.701355
v -101.701347 0.003143 -101.701355
v 101.701347 0.003143 -101.701355
vt 0.000000 0.000000
vt 1.000000 0.000000
vt 1.000000 1.000000
vt 0.000000 1.000000
vn 0.000000 1.000000 0.000000
vn 0.000000 1.000000 0.000000
vn 0.000000 1.000000 0.000000
vn 0.000000 1.000000 0.000000
s off
g pPlane1
usemtl lambert2SG
f 1/1/1 2/2/2 4/3/3 3/4/4
