# This file uses centimeters as units for non-parametric coordinates.

mtllib lights.mtl
g default
v -41.759997 257.439497 -41.759997
v 41.759997 257.439497 -41.759997
v -41.759997 257.439497 41.759997
v 41.759997 257.439497 41.759997
vt 0.000000 0.000000
vt 1.000000 0.000000
vt 0.000000 1.000000
vt 1.000000 1.000000
vn 0.000000 -1.000000 -0.000000
vn 0.000000 -1.000000 -0.000000
vn 0.000000 -1.000000 -0.000000
vn 0.000000 -1.000000 -0.000000
s off
g pPlane1
usemtl lambert2SG
f 1/1/1 2/2/2 4/4/3 3/3/4
g default
v 135.689673 277.492812 227.770541
v 193.793366 279.573715 198.144684
v 149.844744 235.305279 252.568937
v 207.948436 237.386182 222.943080
vt 0.000000 0.000000
vt 1.000000 0.000000
vt 0.000000 1.000000
vt 1.000000 1.000000
vn -0.360462 -0.559608 -0.746262
vn -0.360462 -0.559608 -0.746262
vn -0.360462 -0.559608 -0.746262
vn -0.360462 -0.559608 -0.746262
s off
g pPlane2
usemtl lambert2SG
f 5/5/5 6/6/6 8/8/7 7/7/8
g default
v -186.271806 284.248795 203.325594
v -128.443706 277.775803 232.856457
v -198.969836 237.103191 217.857164
v -141.141736 230.630199 247.388027
vt 0.000000 0.000000
vt 1.000000 0.000000
vt 0.000000 1.000000
vt 1.000000 1.000000
vn 0.390529 -0.365599 -0.844881
vn 0.390529 -0.365599 -0.844881
vn 0.390529 -0.365599 -0.844881
vn 0.390529 -0.365599 -0.844881
s off
g pPlane3
usemtl lambert2SG
f 9/9/9 10/10/10 12/12/11 11/11/12
